# xmcd CD database file
#
# Track frame offsets:
#	150
#	17815
#	30680
#	50318
#	66203
#	92500
#	102750
#	116123
#	139550
#	170400
#	186845
#	211383
#	225230
#
# Disc length: 3286 seconds
#
# Revision: 0
# Processed by: cddbd v1.5PL3 Copyright (c) Steve Scherf et al.
# Submitted via: CDex 1.51
#
DISCID=a50cd40d
DTITLE=Jacqueline Castellanos - La Dama del Son
DYEAR=1993
DGENRE=Salsa
TTITLE0=Me Quede con Ganas
TTITLE1=Candelina Ale
TTITLE2=Como Me Ha Insultado
TTITLE3=Para Tu Altar
TTITLE4=Solo Vivo Por Ti
TTITLE5=Desavenencias
TTITLE6=Yiriyiribon
TTITLE7=La Dama Del Son
TTITLE8=Y Siempre Dimos Mas
TTITLE9=Arrebatado Cha-Cha-Cha
TTITLE10=Procuro Olvidarte
TTITLE11=Te Quedaras
TTITLE12=A Santa Barbara
EXTD=YEAR: 1993
EXTT0=
EXTT1=
EXTT2=
EXTT3=
EXTT4=
EXTT5=
EXTT6=
EXTT7=
EXTT8=
EXTT9=
EXTT10=
EXTT11=
EXTT12=
PLAYORDER=
